<svg xmlns="http://www.w3.org/2000/svg" xmlns:xlink="http://www.w3.org/1999/xlink" width="1920" zoomAndPan="magnify" viewBox="0 0 1440 809.999993" height="1080" preserveAspectRatio="xMidYMid meet" version="1.0"><defs><g/></defs><path fill="#303030" d="M 11.78125 200.25 L 11.78125 738.421875 C 11.78125 775.96875 49.328125 801 74.359375 801 L 512.40625 801 L 512.40625 137.671875 L 74.359375 137.671875 C 36.8125 137.671875 11.78125 162.703125 11.78125 200.25 Z M 11.78125 200.25 " fill-opacity="1" fill-rule="nonzero"/><path fill="#dddddd" d="M 36.8125 725.90625 C 36.8125 750.9375 49.328125 775.96875 86.875 775.96875 L 487.375 775.96875 L 487.375 675.84375 L 86.875 675.84375 C 49.328125 675.84375 36.8125 700.875 36.8125 725.90625 Z M 36.8125 725.90625 " fill-opacity="1" fill-rule="nonzero"/><path fill="#505050" d="M 124.421875 675.84375 L 512.40625 675.84375 L 512.40625 137.671875 L 124.421875 137.671875 Z M 124.421875 675.84375 " fill-opacity="1" fill-rule="nonzero"/><path fill="#008a00" d="M 74.359375 75.09375 L 74.359375 613.265625 C 74.359375 650.8125 111.90625 675.84375 136.9375 675.84375 L 574.984375 675.84375 L 574.984375 12.515625 L 136.9375 12.515625 C 99.390625 12.515625 74.359375 37.546875 74.359375 75.09375 Z M 74.359375 75.09375 " fill-opacity="1" fill-rule="nonzero"/><path fill="#dddddd" d="M 99.390625 600.75 C 99.390625 625.78125 111.90625 650.8125 149.453125 650.8125 L 549.953125 650.8125 L 549.953125 550.6875 L 149.453125 550.6875 C 111.90625 550.6875 99.390625 575.71875 99.390625 600.75 Z M 99.390625 600.75 " fill-opacity="1" fill-rule="nonzero"/><path fill="#60a917" d="M 187 550.6875 L 574.984375 550.6875 L 574.984375 12.515625 L 187 12.515625 Z M 187 550.6875 " fill-opacity="1" fill-rule="nonzero"/><path fill="#7a3b3f" d="M 11.78125 538.171875 C 11.78125 500.625 61.84375 375.46875 136.9375 375.46875 L 574.984375 375.46875 L 574.984375 250.3125 L 136.9375 250.3125 C 49.328125 250.3125 11.78125 337.921875 11.78125 387.984375 Z M 11.78125 538.171875 " fill-opacity="1" fill-rule="nonzero"/><g fill="#ff5757" fill-opacity="1"><g transform="translate(417.036306, 363.443389)"><g><path d="M 2.75 -49.515625 C 2.75 -63.816406 7.625 -75.921875 17.375 -85.828125 C 27.125 -95.734375 38.875 -100.6875 52.625 -100.6875 C 66.445312 -100.6875 78.191406 -95.75 87.859375 -85.875 C 97.535156 -76.007812 102.375 -63.890625 102.375 -49.515625 C 102.375 -35.046875 97.617188 -22.875 88.109375 -13 C 78.597656 -3.132812 66.769531 1.796875 52.625 1.796875 C 38.15625 1.796875 26.222656 -3.097656 16.828125 -12.890625 C 7.441406 -22.679688 2.75 -34.890625 2.75 -49.515625 Z M 27.09375 -49.515625 C 27.09375 -44.316406 27.890625 -39.578125 29.484375 -35.296875 C 31.085938 -31.023438 33.882812 -27.410156 37.875 -24.453125 C 41.875 -21.492188 46.789062 -20.015625 52.625 -20.015625 C 61.019531 -20.015625 67.351562 -22.890625 71.625 -28.640625 C 75.894531 -34.398438 78.03125 -41.359375 78.03125 -49.515625 C 78.03125 -57.578125 75.851562 -64.503906 71.5 -70.296875 C 67.144531 -76.097656 60.851562 -79 52.625 -79 C 44.46875 -79 38.171875 -76.097656 33.734375 -70.296875 C 29.304688 -64.503906 27.09375 -57.578125 27.09375 -49.515625 Z M 27.09375 -49.515625 "/></g></g></g><g fill="#ff5757" fill-opacity="1"><g transform="translate(528.160292, 363.443389)"><g><path d="M 29.734375 -61.375 L 29.734375 0 L 7.1875 0 L 7.1875 -98.890625 L 29.734375 -98.890625 L 69.046875 -37.515625 L 69.28125 -37.515625 L 69.28125 -98.890625 L 91.828125 -98.890625 L 91.828125 0 L 69.28125 0 L 29.96875 -61.375 Z M 29.734375 -61.375 "/></g></g></g><g fill="#ff5757" fill-opacity="1"><g transform="translate(633.170669, 363.443389)"><g><path d="M 29.734375 -98.890625 L 29.734375 -19.78125 L 63.78125 -19.78125 L 63.78125 0 L 7.1875 0 L 7.1875 -98.890625 Z M 29.734375 -98.890625 "/></g></g></g><g fill="#ff5757" fill-opacity="1"><g transform="translate(706.893709, 363.443389)"><g><path d="M 29.734375 -98.890625 L 29.734375 0 L 7.1875 0 L 7.1875 -98.890625 Z M 29.734375 -98.890625 "/></g></g></g><g fill="#ff5757" fill-opacity="1"><g transform="translate(749.808914, 363.443389)"><g><path d="M 29.734375 -61.375 L 29.734375 0 L 7.1875 0 L 7.1875 -98.890625 L 29.734375 -98.890625 L 69.046875 -37.515625 L 69.28125 -37.515625 L 69.28125 -98.890625 L 91.828125 -98.890625 L 91.828125 0 L 69.28125 0 L 29.96875 -61.375 Z M 29.734375 -61.375 "/></g></g></g><g fill="#ff5757" fill-opacity="1"><g transform="translate(854.819291, 363.443389)"><g><path d="M 63.78125 -98.890625 L 63.78125 -79.125 L 29.734375 -79.125 L 29.734375 -59.453125 L 62.328125 -59.453125 L 62.328125 -39.671875 L 29.734375 -39.671875 L 29.734375 -19.78125 L 63.78125 -19.78125 L 63.78125 0 L 7.1875 0 L 7.1875 -98.890625 Z M 63.78125 -98.890625 "/></g></g></g><g fill="#ff5757" fill-opacity="1"><g transform="translate(930.340453, 363.443389)"><g/></g></g><g fill="#ff5757" fill-opacity="1"><g transform="translate(969.060017, 363.443389)"><g><path d="M 7.1875 -98.890625 L 37.875 -98.890625 C 47.144531 -98.890625 54.535156 -96.910156 60.046875 -92.953125 C 65.566406 -89.003906 68.328125 -82.59375 68.328125 -73.71875 C 68.328125 -63.8125 64.210938 -56.738281 55.984375 -52.5 C 70.046875 -50.03125 77.078125 -41.722656 77.078125 -27.578125 C 77.078125 -19.265625 74.195312 -12.585938 68.4375 -7.546875 C 62.6875 -2.515625 54.78125 0 44.71875 0 L 7.1875 0 Z M 29.734375 -60.171875 L 31.53125 -60.171875 C 36.5625 -60.171875 40.316406 -61.050781 42.796875 -62.8125 C 45.273438 -64.570312 46.515625 -67.453125 46.515625 -71.453125 C 46.515625 -78.160156 41.519531 -81.515625 31.53125 -81.515625 L 29.734375 -81.515625 Z M 29.734375 -17.375 L 36.796875 -17.375 C 47.828125 -17.375 53.34375 -21.050781 53.34375 -28.40625 C 53.34375 -32.800781 51.960938 -35.957031 49.203125 -37.875 C 46.453125 -39.789062 42.316406 -40.75 36.796875 -40.75 L 29.734375 -40.75 Z M 29.734375 -17.375 "/></g></g></g><g fill="#ff5757" fill-opacity="1"><g transform="translate(1054.890429, 363.443389)"><g><path d="M 2.75 -49.515625 C 2.75 -63.816406 7.625 -75.921875 17.375 -85.828125 C 27.125 -95.734375 38.875 -100.6875 52.625 -100.6875 C 66.445312 -100.6875 78.191406 -95.75 87.859375 -85.875 C 97.535156 -76.007812 102.375 -63.890625 102.375 -49.515625 C 102.375 -35.046875 97.617188 -22.875 88.109375 -13 C 78.597656 -3.132812 66.769531 1.796875 52.625 1.796875 C 38.15625 1.796875 26.222656 -3.097656 16.828125 -12.890625 C 7.441406 -22.679688 2.75 -34.890625 2.75 -49.515625 Z M 27.09375 -49.515625 C 27.09375 -44.316406 27.890625 -39.578125 29.484375 -35.296875 C 31.085938 -31.023438 33.882812 -27.410156 37.875 -24.453125 C 41.875 -21.492188 46.789062 -20.015625 52.625 -20.015625 C 61.019531 -20.015625 67.351562 -22.890625 71.625 -28.640625 C 75.894531 -34.398438 78.03125 -41.359375 78.03125 -49.515625 C 78.03125 -57.578125 75.851562 -64.503906 71.5 -70.296875 C 67.144531 -76.097656 60.851562 -79 52.625 -79 C 44.46875 -79 38.171875 -76.097656 33.734375 -70.296875 C 29.304688 -64.503906 27.09375 -57.578125 27.09375 -49.515625 Z M 27.09375 -49.515625 "/></g></g></g><g fill="#ff5757" fill-opacity="1"><g transform="translate(1166.014389, 363.443389)"><g><path d="M 2.75 -49.515625 C 2.75 -63.816406 7.625 -75.921875 17.375 -85.828125 C 27.125 -95.734375 38.875 -100.6875 52.625 -100.6875 C 66.445312 -100.6875 78.191406 -95.75 87.859375 -85.875 C 97.535156 -76.007812 102.375 -63.890625 102.375 -49.515625 C 102.375 -35.046875 97.617188 -22.875 88.109375 -13 C 78.597656 -3.132812 66.769531 1.796875 52.625 1.796875 C 38.15625 1.796875 26.222656 -3.097656 16.828125 -12.890625 C 7.441406 -22.679688 2.75 -34.890625 2.75 -49.515625 Z M 27.09375 -49.515625 C 27.09375 -44.316406 27.890625 -39.578125 29.484375 -35.296875 C 31.085938 -31.023438 33.882812 -27.410156 37.875 -24.453125 C 41.875 -21.492188 46.789062 -20.015625 52.625 -20.015625 C 61.019531 -20.015625 67.351562 -22.890625 71.625 -28.640625 C 75.894531 -34.398438 78.03125 -41.359375 78.03125 -49.515625 C 78.03125 -57.578125 75.851562 -64.503906 71.5 -70.296875 C 67.144531 -76.097656 60.851562 -79 52.625 -79 C 44.46875 -79 38.171875 -76.097656 33.734375 -70.296875 C 29.304688 -64.503906 27.09375 -57.578125 27.09375 -49.515625 Z M 27.09375 -49.515625 "/></g></g></g><g fill="#ff5757" fill-opacity="1"><g transform="translate(1277.13835, 363.443389)"><g><path d="M 97.21875 0 L 66.171875 0 L 29.734375 -41.953125 L 29.734375 0 L 7.1875 0 L 7.1875 -98.890625 L 29.734375 -98.890625 L 29.734375 -58.5 L 63.65625 -98.890625 L 90.984375 -98.890625 L 51.1875 -52.03125 Z M 97.21875 0 "/></g></g></g><g fill="#000000" fill-opacity="1"><g transform="translate(1377.458076, 363.443389)"><g/></g></g><g fill="#000000" fill-opacity="1"><g transform="translate(418.709558, 512.088118)"><g><path d="M 88.953125 0 L 84.265625 -58.625 L 83.671875 -58.625 L 63.40625 -0.59375 L 49.984375 -0.59375 L 29.734375 -58.625 L 29.125 -58.625 L 24.453125 0 L 1.921875 0 L 10.78125 -98.890625 L 34.765625 -98.890625 L 56.703125 -41.84375 L 78.640625 -98.890625 L 102.609375 -98.890625 L 111.484375 0 Z M 88.953125 0 "/></g></g></g><g fill="#000000" fill-opacity="1"><g transform="translate(538.104909, 512.088118)"><g><path d="M 57.421875 -98.890625 L 97.34375 0 L 73.125 0 L 65.8125 -19.78125 L 28.171875 -19.78125 L 20.859375 0 L -3.359375 0 L 36.5625 -98.890625 Z M 58.140625 -39.5625 L 47.109375 -68.328125 L 46.875 -68.328125 L 35.84375 -39.5625 Z M 58.140625 -39.5625 "/></g></g></g><g fill="#000000" fill-opacity="1"><g transform="translate(638.08053, 512.088118)"><g><path d="M 7.1875 -98.890625 L 42.5625 -98.890625 C 52.070312 -98.890625 59.820312 -96.351562 65.8125 -91.28125 C 71.800781 -86.207031 74.796875 -78.957031 74.796875 -69.53125 C 74.796875 -62.257812 72.976562 -56.164062 69.34375 -51.25 C 65.707031 -46.332031 60.773438 -42.875 54.546875 -40.875 L 88.59375 0 L 59.9375 0 L 29.734375 -39.078125 L 29.734375 0 L 7.1875 0 Z M 29.734375 -55.015625 L 32.359375 -55.015625 C 34.441406 -55.015625 36.203125 -55.054688 37.640625 -55.140625 C 39.078125 -55.222656 40.710938 -55.503906 42.546875 -55.984375 C 44.390625 -56.460938 45.867188 -57.140625 46.984375 -58.015625 C 48.109375 -58.898438 49.066406 -60.179688 49.859375 -61.859375 C 50.660156 -63.535156 51.0625 -65.570312 51.0625 -67.96875 C 51.0625 -70.363281 50.660156 -72.398438 49.859375 -74.078125 C 49.066406 -75.753906 48.109375 -77.03125 46.984375 -77.90625 C 45.867188 -78.789062 44.390625 -79.472656 42.546875 -79.953125 C 40.710938 -80.429688 39.078125 -80.710938 37.640625 -80.796875 C 36.203125 -80.878906 34.441406 -80.921875 32.359375 -80.921875 L 29.734375 -80.921875 Z M 29.734375 -55.015625 "/></g></g></g><g fill="#000000" fill-opacity="1"><g transform="translate(729.904656, 512.088118)"><g><path d="M 97.21875 0 L 66.171875 0 L 29.734375 -41.953125 L 29.734375 0 L 7.1875 0 L 7.1875 -98.890625 L 29.734375 -98.890625 L 29.734375 -58.5 L 63.65625 -98.890625 L 90.984375 -98.890625 L 51.1875 -52.03125 Z M 97.21875 0 "/></g></g></g><g fill="#000000" fill-opacity="1"><g transform="translate(830.239936, 512.088118)"><g><path d="M 63.78125 -98.890625 L 63.78125 -79.125 L 29.734375 -79.125 L 29.734375 -59.453125 L 62.328125 -59.453125 L 62.328125 -39.671875 L 29.734375 -39.671875 L 29.734375 -19.78125 L 63.78125 -19.78125 L 63.78125 0 L 7.1875 0 L 7.1875 -98.890625 Z M 63.78125 -98.890625 "/></g></g></g><g fill="#000000" fill-opacity="1"><g transform="translate(905.761097, 512.088118)"><g><path d="M 0.953125 -79.125 L 0.953125 -98.890625 L 70.484375 -98.890625 L 70.484375 -79.125 L 46.984375 -79.125 L 46.984375 0 L 24.453125 0 L 24.453125 -79.125 Z M 0.953125 -79.125 "/></g></g></g><g fill="#000000" fill-opacity="1"><g transform="translate(983.200275, 512.088118)"><g><path d="M 7.1875 -98.890625 L 43.28125 -98.890625 C 53.34375 -98.890625 61.488281 -96.289062 67.71875 -91.09375 C 73.957031 -85.90625 77.078125 -78.351562 77.078125 -68.4375 C 77.078125 -58.53125 73.921875 -50.757812 67.609375 -45.125 C 61.296875 -39.5 53.1875 -36.6875 43.28125 -36.6875 L 29.734375 -36.6875 L 29.734375 0 L 7.1875 0 Z M 29.734375 -54.65625 L 36.078125 -54.65625 C 41.117188 -54.65625 45.253906 -55.675781 48.484375 -57.71875 C 51.722656 -59.757812 53.34375 -63.097656 53.34375 -67.734375 C 53.34375 -72.441406 51.722656 -75.816406 48.484375 -77.859375 C 45.253906 -79.898438 41.117188 -80.921875 36.078125 -80.921875 L 29.734375 -80.921875 Z M 29.734375 -54.65625 "/></g></g></g><g fill="#000000" fill-opacity="1"><g transform="translate(1069.030637, 512.088118)"><g><path d="M 29.734375 -98.890625 L 29.734375 -19.78125 L 63.78125 -19.78125 L 63.78125 0 L 7.1875 0 L 7.1875 -98.890625 Z M 29.734375 -98.890625 "/></g></g></g><g fill="#000000" fill-opacity="1"><g transform="translate(1142.753677, 512.088118)"><g><path d="M 57.421875 -98.890625 L 97.34375 0 L 73.125 0 L 65.8125 -19.78125 L 28.171875 -19.78125 L 20.859375 0 L -3.359375 0 L 36.5625 -98.890625 Z M 58.140625 -39.5625 L 47.109375 -68.328125 L 46.875 -68.328125 L 35.84375 -39.5625 Z M 58.140625 -39.5625 "/></g></g></g><g fill="#000000" fill-opacity="1"><g transform="translate(1242.729273, 512.088118)"><g><path d="M 59.8125 -20.375 C 63.25 -20.375 66.585938 -20.894531 69.828125 -21.9375 C 73.066406 -22.976562 75.441406 -23.976562 76.953125 -24.9375 L 79.234375 -26.5 L 88.828125 -7.3125 C 88.503906 -7.070312 88.0625 -6.75 87.5 -6.34375 C 86.945312 -5.945312 85.648438 -5.207031 83.609375 -4.125 C 81.578125 -3.050781 79.398438 -2.113281 77.078125 -1.3125 C 74.765625 -0.519531 71.726562 0.191406 67.96875 0.828125 C 64.207031 1.472656 60.332031 1.796875 56.34375 1.796875 C 47.15625 1.796875 38.441406 -0.457031 30.203125 -4.96875 C 21.972656 -9.488281 15.335938 -15.703125 10.296875 -23.609375 C 5.265625 -31.523438 2.75 -40.078125 2.75 -49.265625 C 2.75 -56.222656 4.226562 -62.894531 7.1875 -69.28125 C 10.144531 -75.675781 14.082031 -81.148438 19 -85.703125 C 23.914062 -90.265625 29.648438 -93.898438 36.203125 -96.609375 C 42.753906 -99.328125 49.46875 -100.6875 56.34375 -100.6875 C 62.738281 -100.6875 68.628906 -99.925781 74.015625 -98.40625 C 79.410156 -96.894531 83.226562 -95.378906 85.46875 -93.859375 L 88.828125 -91.578125 L 79.234375 -72.40625 C 78.671875 -72.882812 77.832031 -73.460938 76.71875 -74.140625 C 75.601562 -74.816406 73.363281 -75.710938 70 -76.828125 C 66.644531 -77.953125 63.25 -78.515625 59.8125 -78.515625 C 54.382812 -78.515625 49.507812 -77.632812 45.1875 -75.875 C 40.875 -74.125 37.457031 -71.804688 34.9375 -68.921875 C 32.425781 -66.046875 30.507812 -62.945312 29.1875 -59.625 C 27.875 -56.3125 27.21875 -52.941406 27.21875 -49.515625 C 27.21875 -41.992188 30.03125 -35.253906 35.65625 -29.296875 C 41.289062 -23.347656 49.34375 -20.375 59.8125 -20.375 Z M 59.8125 -20.375 "/></g></g></g><g fill="#000000" fill-opacity="1"><g transform="translate(1338.988782, 512.088118)"><g><path d="M 63.78125 -98.890625 L 63.78125 -79.125 L 29.734375 -79.125 L 29.734375 -59.453125 L 62.328125 -59.453125 L 62.328125 -39.671875 L 29.734375 -39.671875 L 29.734375 -19.78125 L 63.78125 -19.78125 L 63.78125 0 L 7.1875 0 L 7.1875 -98.890625 Z M 63.78125 -98.890625 "/></g></g></g></svg>